<svg xmlns="http://www.w3.org/2000/svg" version="1.1" xmlns:xlink="http://www.w3.org/1999/xlink" xmlns:svgjs="http://svgjs.dev/svgjs" viewBox="0 0 800 800"><defs><linearGradient x1="50%" y1="0%" x2="50%" y2="100%" id="ffflurry-grad" gradientTransform="rotate(270)"><stop stop-color="hsl(238, 82%, 13%)" stop-opacity="1" offset="0%"></stop><stop stop-color="hsl(1.4, 100%, 67%)" stop-opacity="1" offset="45%"></stop><stop stop-color="hsl(167, 52%, 78%)" stop-opacity="1" offset="100%"></stop></linearGradient></defs><rect width="100%" height="100%" fill="hsl(238, 82%, 13%)"></rect><g fill="hsl(265, 55%, 20%)"><rect width="128" height="3" x="551" y="548.5" rx="1.5" transform="rotate(45, 615, 550)" opacity="0.13"></rect><rect width="103" height="3" x="513.5" y="755.5" rx="1.5" transform="rotate(45, 565, 757)" opacity="0.82"></rect><rect width="156" height="3" x="150" y="47.5" rx="1.5" transform="rotate(45, 228, 49)" opacity="0.74"></rect><rect width="409" height="3" x="201.5" y="373.5" rx="1.5" transform="rotate(45, 406, 375)" opacity="0.64"></rect><rect width="166" height="3" x="438" y="503.5" rx="1.5" transform="rotate(45, 521, 505)" opacity="0.38"></rect><rect width="48" height="3" x="234" y="619.5" rx="1.5" transform="rotate(45, 258, 621)" opacity="0.16"></rect><rect width="140" height="3" x="182" y="296.5" rx="1.5" transform="rotate(45, 252, 298)" opacity="0.84"></rect><rect width="45" height="3" x="539.5" y="254.5" rx="1.5" transform="rotate(45, 562, 256)" opacity="0.33"></rect><rect width="144" height="3" x="140" y="680.5" rx="1.5" transform="rotate(45, 212, 682)" opacity="0.68"></rect><rect width="540" height="3" x="148" y="587.5" rx="1.5" transform="rotate(45, 418, 589)" opacity="0.88"></rect><rect width="303" height="3" x="590.5" y="67.5" rx="1.5" transform="rotate(45, 742, 69)" opacity="0.66"></rect><rect width="122" height="3" x="590" y="711.5" rx="1.5" transform="rotate(45, 651, 713)" opacity="0.13"></rect><rect width="276" height="3" x="345" y="95.5" rx="1.5" transform="rotate(45, 483, 97)" opacity="0.16"></rect><rect width="570" height="3" x="-247" y="302.5" rx="1.5" transform="rotate(45, 38, 304)" opacity="0.28"></rect><rect width="412" height="3" x="-44" y="754.5" rx="1.5" transform="rotate(45, 162, 756)" opacity="0.49"></rect><rect width="185" height="3" x="648.5" y="206.5" rx="1.5" transform="rotate(45, 741, 208)" opacity="0.27"></rect><rect width="724" height="3" x="384" y="722.5" rx="1.5" transform="rotate(45, 746, 724)" opacity="0.28"></rect><rect width="102" height="3" x="262" y="736.5" rx="1.5" transform="rotate(45, 313, 738)" opacity="0.68"></rect><rect width="283" height="3" x="177.5" y="36.5" rx="1.5" transform="rotate(45, 319, 38)" opacity="0.11"></rect><rect width="326" height="3" x="200" y="748.5" rx="1.5" transform="rotate(45, 363, 750)" opacity="0.49"></rect><rect width="307" height="3" x="330.5" y="268.5" rx="1.5" transform="rotate(45, 484, 270)" opacity="0.95"></rect><rect width="444" height="3" x="267" y="756.5" rx="1.5" transform="rotate(45, 489, 758)" opacity="0.14"></rect><rect width="102" height="3" x="586" y="221.5" rx="1.5" transform="rotate(45, 637, 223)" opacity="0.38"></rect><rect width="78" height="3" x="484" y="375.5" rx="1.5" transform="rotate(45, 523, 377)" opacity="0.73"></rect><rect width="140" height="3" x="354" y="207.5" rx="1.5" transform="rotate(45, 424, 209)" opacity="0.83"></rect><rect width="139" height="3" x="-17.5" y="746.5" rx="1.5" transform="rotate(45, 52, 748)" opacity="0.77"></rect><rect width="130" height="3" x="704" y="524.5" rx="1.5" transform="rotate(45, 769, 526)" opacity="0.14"></rect><rect width="123" height="3" x="12.5" y="220.5" rx="1.5" transform="rotate(45, 74, 222)" opacity="0.96"></rect><rect width="162" height="3" x="378" y="387.5" rx="1.5" transform="rotate(45, 459, 389)" opacity="0.63"></rect><rect width="124" height="3" x="195" y="744.5" rx="1.5" transform="rotate(45, 257, 746)" opacity="0.94"></rect><rect width="62" height="3" x="129" y="281.5" rx="1.5" transform="rotate(45, 160, 283)" opacity="0.45"></rect><rect width="124" height="3" x="194" y="163.5" rx="1.5" transform="rotate(45, 256, 165)" opacity="0.48"></rect><rect width="488" height="3" x="-94" y="636.5" rx="1.5" transform="rotate(45, 150, 638)" opacity="0.81"></rect><rect width="104" height="3" x="287" y="639.5" rx="1.5" transform="rotate(45, 339, 641)" opacity="0.74"></rect><rect width="465" height="3" x="404.5" y="140.5" rx="1.5" transform="rotate(45, 637, 142)" opacity="0.85"></rect><rect width="579" height="3" x="18.5" y="542.5" rx="1.5" transform="rotate(45, 308, 544)" opacity="0.84"></rect><rect width="623" height="3" x="-267.5" y="139.5" rx="1.5" transform="rotate(45, 44, 141)" opacity="0.99"></rect><rect width="339" height="3" x="443.5" y="80.5" rx="1.5" transform="rotate(45, 613, 82)" opacity="0.78"></rect><rect width="690" height="3" x="-162" y="408.5" rx="1.5" transform="rotate(45, 183, 410)" opacity="0.97"></rect><rect width="255" height="3" x="483.5" y="421.5" rx="1.5" transform="rotate(45, 611, 423)" opacity="0.67"></rect><rect width="595" height="3" x="-239.5" y="40.5" rx="1.5" transform="rotate(45, 58, 42)" opacity="0.76"></rect><rect width="525" height="3" x="22.5" y="388.5" rx="1.5" transform="rotate(45, 285, 390)" opacity="0.90"></rect><rect width="500" height="3" x="312" y="663.5" rx="1.5" transform="rotate(45, 562, 665)" opacity="0.25"></rect><rect width="751" height="3" x="-181.5" y="543.5" rx="1.5" transform="rotate(45, 194, 545)" opacity="0.68"></rect><rect width="374" height="3" x="271" y="447.5" rx="1.5" transform="rotate(45, 458, 449)" opacity="0.92"></rect><rect width="645" height="3" x="-148.5" y="177.5" rx="1.5" transform="rotate(45, 174, 179)" opacity="0.45"></rect><rect width="413" height="3" x="200.5" y="38.5" rx="1.5" transform="rotate(45, 407, 40)" opacity="0.81"></rect><rect width="419" height="3" x="201.5" y="509.5" rx="1.5" transform="rotate(45, 411, 511)" opacity="0.35"></rect><rect width="356" height="3" x="336" y="604.5" rx="1.5" transform="rotate(45, 514, 606)" opacity="0.66"></rect><rect width="206" height="3" x="234" y="178.5" rx="1.5" transform="rotate(45, 337, 180)" opacity="0.96"></rect><rect width="474" height="3" x="186" y="763.5" rx="1.5" transform="rotate(45, 423, 765)" opacity="0.22"></rect><rect width="89" height="3" x="232.5" y="467.5" rx="1.5" transform="rotate(45, 277, 469)" opacity="0.38"></rect><rect width="375" height="3" x="575.5" y="311.5" rx="1.5" transform="rotate(45, 763, 313)" opacity="0.10"></rect><rect width="319" height="3" x="358.5" y="166.5" rx="1.5" transform="rotate(45, 518, 168)" opacity="0.71"></rect><rect width="48" height="3" x="662" y="471.5" rx="1.5" transform="rotate(45, 686, 473)" opacity="0.65"></rect><rect width="238" height="3" x="578" y="564.5" rx="1.5" transform="rotate(45, 697, 566)" opacity="0.79"></rect><rect width="553" height="3" x="132.5" y="128.5" rx="1.5" transform="rotate(45, 409, 130)" opacity="0.14"></rect><rect width="194" height="3" x="271" y="440.5" rx="1.5" transform="rotate(45, 368, 442)" opacity="0.77"></rect><rect width="185" height="3" x="511.5" y="323.5" rx="1.5" transform="rotate(45, 604, 325)" opacity="0.27"></rect><rect width="230" height="3" x="393" y="34.5" rx="1.5" transform="rotate(45, 508, 36)" opacity="0.17"></rect><rect width="259" height="3" x="214.5" y="337.5" rx="1.5" transform="rotate(45, 344, 339)" opacity="0.74"></rect><rect width="129" height="3" x="724.5" y="476.5" rx="1.5" transform="rotate(45, 789, 478)" opacity="0.88"></rect><rect width="378" height="3" x="-44" y="79.5" rx="1.5" transform="rotate(45, 145, 81)" opacity="0.75"></rect><rect width="106" height="3" x="702" y="464.5" rx="1.5" transform="rotate(45, 755, 466)" opacity="0.25"></rect><rect width="53" height="3" x="44.5" y="383.5" rx="1.5" transform="rotate(45, 71, 385)" opacity="0.92"></rect><rect width="709" height="3" x="-241.5" y="486.5" rx="1.5" transform="rotate(45, 113, 488)" opacity="0.91"></rect><rect width="340" height="3" x="159" y="107.5" rx="1.5" transform="rotate(45, 329, 109)" opacity="0.72"></rect><rect width="447" height="3" x="114.5" y="248.5" rx="1.5" transform="rotate(45, 338, 250)" opacity="0.26"></rect><rect width="206" height="3" x="587" y="344.5" rx="1.5" transform="rotate(45, 690, 346)" opacity="0.98"></rect><rect width="166" height="3" x="672" y="405.5" rx="1.5" transform="rotate(45, 755, 407)" opacity="0.73"></rect><rect width="212" height="3" x="328" y="681.5" rx="1.5" transform="rotate(45, 434, 683)" opacity="0.77"></rect><rect width="252" height="3" x="-61" y="581.5" rx="1.5" transform="rotate(45, 65, 583)" opacity="0.21"></rect><rect width="297" height="3" x="605.5" y="606.5" rx="1.5" transform="rotate(45, 754, 608)" opacity="0.89"></rect><rect width="303" height="3" x="-89.5" y="660.5" rx="1.5" transform="rotate(45, 62, 662)" opacity="0.64"></rect><rect width="97" height="3" x="370.5" y="305.5" rx="1.5" transform="rotate(45, 419, 307)" opacity="0.71"></rect><rect width="44" height="3" x="592" y="23.5" rx="1.5" transform="rotate(45, 614, 25)" opacity="0.33"></rect><rect width="188" height="3" x="-65" y="499.5" rx="1.5" transform="rotate(45, 29, 501)" opacity="0.31"></rect></g></svg>